<svg xmlns="http://www.w3.org/2000/svg" width="48" height="48" viewBox="0 0 48 48">
    <g fill="none">
        <circle cx="24" cy="24" r="24" fill="#4FA0EB"/>
        <g transform="translate(8.8 8.851)">
            <path fill="#FFF" d="M3.805 24.546C1.697 21.992.431 18.718.431 15.149.43 6.992 7.043.379 15.2.379s14.77 6.613 14.77 14.77-6.613 14.769-14.77 14.769c-2.084 0-4.067-.432-5.865-1.21-.007.061-.12.034-.369-.107l-5.17 1.258c-.355.081-.726-.032-.975-.297-.222-.236-.319-.56-.266-.876l.026-.117 1.224-4.023z"/>
            <rect width="5.538" height="5.538" x="6.892" y="9.61" fill="#2D5198" rx=".806"/>
            <circle cx="20.369" cy="12.379" r="3.138" fill="#2D5198"/>
            <path fill="#2D5198" d="M15.208 23.087c-1.721 0-3.417-.414-4.94-1.205-.36-.188-.59-.55-.606-.952-.015-.4.187-.78.531-.993.344-.214.777-.23 1.137-.043 1.196.622 2.527.948 3.878.948 1.335.004 2.65-.313 3.834-.923.362-.202.807-.193 1.16.024.353.217.558.608.535 1.018-.024.41-.272.775-.648.951-1.508.772-3.182 1.175-4.88 1.175z"/>
        </g>
    </g>
</svg>
